# xmcd
#
# Track frame offsets:
#   150
#   14352
#   26339
#   43329
#   60279
#   76167
#   92206
#   108433
#   124836
#   140650
#   152407
#   164434
#   179300
#   194159
#   209655
#
# Disc length: 2999 seconds
#
# Revision: 0
# Processed by: cddbd v1.5PL3 Copyright (c) Steve Scherf et al.
# Submitted via: uFREEDB ActiveX Control 1.5
#
DISCID=ce0bb50f
DTITLE=Filhos do Forró - Sertão Nordestino
DYEAR=1900
DGENRE=Country
TTITLE0=A luz que me guia
TTITLE1=Tirei seu baton
TTITLE2=Par de Aliança
TTITLE3=Sina de Nordestino
TTITLE4=Paixão Errante
TTITLE5=Loucura de Verão
TTITLE6=Não faço gosto de mulher
TTITLE7=A chuva cai
TTITLE8=Louca Paixão
TTITLE9=Sentimento de Mãe
TTITLE10=São João em Caruarú
TTITLE11=Ondas do Coração
TTITLE12=Fios de Cabelos
TTITLE13=A dor da Saudade
TTITLE14=Diga que sim
EXTD=
EXTT0=
EXTT1=
EXTT2=
EXTT3=
EXTT4=
EXTT5=
EXTT6=
EXTT7=
EXTT8=
EXTT9=
EXTT10=
EXTT11=
EXTT12=
EXTT13=
EXTT14=
PLAYORDER=
